# xmcd
#
# Track frame offsets:
#	182
#	16522
#	32552
#	53560
#	64225
#	82190
#	94552
#	111767
#	132900
#	146865
#	169177
#
# Disc length: 2500 seconds
#
# Revision: 6
# Processed by: cddbd v1.5.1PL0 Copyright (c) Steve Scherf et al.
# Submitted via: audiograbber 1.83.01
#
DISCID=8c09c20b
DTITLE=LeAnn Rimes - You Light Up My Life
DYEAR=1997
DGENRE=Country
TTITLE0=You Light Up My Life
TTITLE1=The Rose
TTITLE2=Bridge Over Troubled Water
TTITLE3=I Believe
TTITLE4=Ten Thousand Angels Cried
TTITLE5=Clinging To A Saving Hand
TTITLE6=On The Side Of Angels
TTITLE7=I Know Who Holds Tomorrow
TTITLE8=God Bless America
TTITLE9=How Do I Live (Extended Mix)
TTITLE10=Amazing Grace
EXTD=YEAR: 1997
EXTT0=
EXTT1=
EXTT2=
EXTT3=
EXTT4=
EXTT5=
EXTT6=
EXTT7=
EXTT8=
EXTT9=
EXTT10=
PLAYORDER=
